<svg id="visual" viewBox="0 0 900 600" width="900" height="600" xmlns="http://www.w3.org/2000/svg" xmlns:xlink="http://www.w3.org/1999/xlink" version="1.1"><rect x="0" y="0" width="900" height="600" fill="#fff"></rect><path d="M0 381L21.5 379.5C43 378 86 375 128.8 381C171.7 387 214.3 402 257.2 409C300 416 343 415 385.8 408.5C428.7 402 471.3 390 514.2 392.2C557 394.3 600 410.7 642.8 413.3C685.7 416 728.3 405 771.2 399.8C814 394.7 857 395.3 878.5 395.7L900 396L900 601L878.5 601C857 601 814 601 771.2 601C728.3 601 685.7 601 642.8 601C600 601 557 601 514.2 601C471.3 601 428.7 601 385.8 601C343 601 300 601 257.2 601C214.3 601 171.7 601 128.8 601C86 601 43 601 21.5 601L0 601Z" fill="#c4d7ed"></path><path d="M0 472L21.5 464.5C43 457 86 442 128.8 435.7C171.7 429.3 214.3 431.7 257.2 433.8C300 436 343 438 385.8 440.8C428.7 443.7 471.3 447.3 514.2 440.5C557 433.7 600 416.3 642.8 413.2C685.7 410 728.3 421 771.2 434.2C814 447.3 857 462.7 878.5 470.3L900 478L900 601L878.5 601C857 601 814 601 771.2 601C728.3 601 685.7 601 642.8 601C600 601 557 601 514.2 601C471.3 601 428.7 601 385.8 601C343 601 300 601 257.2 601C214.3 601 171.7 601 128.8 601C86 601 43 601 21.5 601L0 601Z" fill="#96aac4"></path><path d="M0 476L21.5 474.7C43 473.3 86 470.7 128.8 465.7C171.7 460.7 214.3 453.3 257.2 451.2C300 449 343 452 385.8 456.3C428.7 460.7 471.3 466.3 514.2 473.3C557 480.3 600 488.7 642.8 485.3C685.7 482 728.3 467 771.2 458.7C814 450.3 857 448.7 878.5 447.8L900 447L900 601L878.5 601C857 601 814 601 771.2 601C728.3 601 685.7 601 642.8 601C600 601 557 601 514.2 601C471.3 601 428.7 601 385.8 601C343 601 300 601 257.2 601C214.3 601 171.7 601 128.8 601C86 601 43 601 21.5 601L0 601Z" fill="#6a7f9c"></path><path d="M0 496L21.5 496.8C43 497.7 86 499.3 128.8 501.8C171.7 504.3 214.3 507.7 257.2 512C300 516.3 343 521.7 385.8 522.5C428.7 523.3 471.3 519.7 514.2 514.5C557 509.3 600 502.7 642.8 504.2C685.7 505.7 728.3 515.3 771.2 522.2C814 529 857 533 878.5 535L900 537L900 601L878.5 601C857 601 814 601 771.2 601C728.3 601 685.7 601 642.8 601C600 601 557 601 514.2 601C471.3 601 428.7 601 385.8 601C343 601 300 601 257.2 601C214.3 601 171.7 601 128.8 601C86 601 43 601 21.5 601L0 601Z" fill="#415676"></path><path d="M0 557L21.5 558C43 559 86 561 128.8 563.3C171.7 565.7 214.3 568.3 257.2 565.8C300 563.3 343 555.7 385.8 553C428.7 550.3 471.3 552.7 514.2 550C557 547.3 600 539.7 642.8 541.3C685.7 543 728.3 554 771.2 557.8C814 561.7 857 558.3 878.5 556.7L900 555L900 601L878.5 601C857 601 814 601 771.2 601C728.3 601 685.7 601 642.8 601C600 601 557 601 514.2 601C471.3 601 428.7 601 385.8 601C343 601 300 601 257.2 601C214.3 601 171.7 601 128.8 601C86 601 43 601 21.5 601L0 601Z" fill="#183152"></path></svg>